:SAMPLES-PER-SECOND 30
:FULLY-SPECIFIED
:DEGREES
781
root  33.5273 39.2718 18.8289 175.87 -7.70241 179.981
RightUpLeg  7.40587 -8.99163 -1.22529
RightLeg  8.43495 -4.90844 0.733844
RightFoot  -11.6928 -0.0780127 0.45667
RightToes  2.91037e-010 0 -3.6325e-017
Spine  7.80983 0.512892 13.0076
Spine1  8.23044 2.59555 -4.92319
HEad  -25.225 32.8519 -9.97379
LeftShoulder1  0.204499 2.92048 -28.9166
LeftArm  -3.53738 8.70255 -43.9889
LeftForeArm  29.5323 -48.6144 -10.5159
LeftHand  -0.0729972 0.0522838 1.59107
RightShoulder  -0.570338 -5.22467 26.3959
RightArm  22.7656 14.7745 46.6813
RightForeArm  -0.546652 19.3419 5.41791
RightHand  -0.473823 3.53761 -6.40505
LeftUpLeg  -14.301 6.56802 -4.62834
LeftLeg  13.6008 0.340469 -0.0918412
LeftFoot  -5.7668 0.263051 -4.67074
LeftToes  -7.53974e-010 3.3384e-011 -1.25048e-011
782
root  33.8132 39.2414 18.082 175.674 -8.33679 -179.913
RightUpLeg  9.3467 -8.58499 -0.48904
RightLeg  7.40047 -6.183 0.699749
RightFoot  -12.1363 -0.0845333 -0.425042
RightToes  2.91037e-010 0 -3.6325e-017
Spine  7.64476 0.653369 12.3783
Spine1  8.57628 2.70152 -5.04005
HEad  -26.8508 33.6629 -10.0667
LeftShoulder1  0.148104 3.08196 -28.981
LeftArm  -3.01811 8.74528 -43.9611
LeftForeArm  28.2983 -46.5349 -9.78477
LeftHand  -0.0685311 0.0633898 1.51292
RightShoulder  -0.539051 -5.11668 26.6322
RightArm  21.228 14.107 47.1011
RightForeArm  0.758861 16.4055 6.28312
RightHand  -0.509004 3.69854 -6.75858
LeftUpLeg  -13.0059 3.40665 -4.81295
LeftLeg  5.52842 7.80039 -1.1919
LeftFoot  -4.93261 0.362211 -5.93216
LeftToes  -7.53974e-010 3.3384e-011 -1.25048e-011
783
root  34.064 39.1199 17.2885 175.547 -9.54144 -179.679
RightUpLeg  11.0436 -8.23925 0.434193
RightLeg  6.86234 -7.9367 0.613418
RightFoot  -13.1678 -0.0971772 -0.477648
RightToes  2.91037e-010 0 -3.6325e-017
Spine  7.43929 0.697022 11.8637
Spine1  8.53281 2.63696 -4.91283
HEad  -27.209 33.28 -10.5645
LeftShoulder1  0.119929 3.16494 -29.2332
LeftArm  -2.19123 8.84712 -44.023
LeftForeArm  26.2333 -43.1827 -8.74039
LeftHand  -0.102338 0.618843 2.43335
RightShoulder  -0.534762 -5.1066 26.5536
RightArm  18.3003 13.0342 47.816
RightForeArm  4.01942 12.6946 7.30506
RightHand  -0.459475 2.97631 -6.58488
LeftUpLeg  -12.0214 0.526266 -4.99473
LeftLeg  -1.38981 14.327 -2.78449
LeftFoot  -3.81727 0.423362 -6.10991
LeftToes  -7.53974e-010 3.3384e-011 -1.25048e-011
784
root  34.2909 38.9676 16.4188 175.129 -10.1986 -179.239
RightUpLeg  13.0483 -7.83607 1.5725
RightLeg  6.381 -9.37106 0.543162
RightFoot  -14.0787 -0.119779 -1.0431
RightToes  2.91037e-010 0 -3.6325e-017
Spine  7.2109 0.908335 11.8209
Spine1  8.87961 2.96109 -5.3467
HEad  -26.6865 34.6111 -11.2444
LeftShoulder1  0.0818446 3.27174 -29.1413
LeftArm  -1.15818 8.71741 -44.1555
LeftForeArm  23.5472 -38.2067 -7.35633
LeftHand  -0.101424 0.860942 2.49371
RightShoulder  -0.596908 -5.25932 27.2695
RightArm  15.6829 12.1103 48.1362
RightForeArm  8.07395 8.72961 7.99509
RightHand  -0.358692 2.30797 -5.61231
LeftUpLeg  -11.5018 -0.0528194 -5.55014
LeftLeg  -5.2464 19.3328 -3.19382
LeftFoot  -3.19562 0.376918 -5.01211
LeftToes  -7.53974e-010 3.3384e-011 -1.25048e-011
785
root  34.4757 38.7364 15.4539 174.748 -11.1041 -178.836
RightUpLeg  14.9761 -7.80431 2.45836
RightLeg  6.42991 -10.5996 0.686615
RightFoot  -15.5129 -0.148526 -1.18079
RightToes  2.91037e-010 0 -3.6325e-017
Spine  6.93524 1.05141 11.5421
Spine1  9.02959 3.10346 -5.39989
HEad  -26.3449 35.1498 -11.6492
LeftShoulder1  0.0612933 3.33241 -29.6163
LeftArm  0.0292829 8.60615 -43.8982
LeftForeArm  20.8765 -32.342 -5.93626
LeftHand  -0.0680909 1.06015 1.72404
RightShoulder  -0.568834 -5.17086 27.341
RightArm  14.4591 9.85138 48.8298
RightForeArm  10.1906 6.06054 7.96139
RightHand  -0.328493 1.82813 -5.45628
LeftUpLeg  -11.469 -0.419267 -5.86863
LeftLeg  -5.89037 23.2505 -3.4031
LeftFoot  -3.10635 0.329395 -4.31768
LeftToes  -7.53974e-010 3.3384e-011 -1.25048e-011
786
root  34.6337 38.4787 14.4198 174.579 -11.7221 -178.644
RightUpLeg  16.6051 -8.05517 2.81618
RightLeg  7.01098 -10.9454 1.07743
RightFoot  -17.08 -0.180117 -1.30716
RightToes  2.91037e-010 0 -3.6325e-017
Spine  6.32858 1.33562 11.4745
Spine1  9.47113 3.60151 -6.1824
HEad  -26.7663 34.35 -11.2907
LeftShoulder1  0.0168792 3.457 -29.7043
LeftArm  1.87638 8.34896 -43.7081
LeftForeArm  17.1387 -25.6918 -4.63492
LeftHand  -0.0587866 1.25657 1.30431
RightShoulder  -0.656987 -5.39176 28.1058
RightArm  13.4913 7.43316 49.3289
RightForeArm  12.1172 3.82634 7.60757
RightHand  -0.285371 1.08538 -5.23132
LeftUpLeg  -11.4526 0.137219 -5.87346
LeftLeg  -4.42016 24.4292 -3.59525
LeftFoot  -2.49082 0.273039 -3.25053
LeftToes  -7.53974e-010 3.3384e-011 -1.25048e-011
787
root  34.7657 38.2503 13.3225 174.36 -11.7338 -178.828
RightUpLeg  18.5729 -8.2297 2.64784
RightLeg  7.41049 -10.5424 1.41806
RightFoot  -18.5004 -0.171168 -0.728692
RightToes  2.91037e-010 0 -3.6325e-017
Spine  5.97806 1.82254 10.7784
Spine1  9.91444 4.28908 -6.77769
HEad  -28.1514 32.6077 -10.5905
LeftShoulder1  -0.0293134 3.58354 -30.1461
LeftArm  0.883718 9.16581 -42.9211
LeftForeArm  16.6128 -19.7966 -4.57655
LeftHand  -0.0126332 3.25057 -0.180191
RightShoulder  -0.688587 -5.46679 28.4002
RightArm  12.7527 4.01126 49.8585
RightForeArm  13.103 3.3779 7.30171
RightHand  -0.2448 0.598171 -4.83485
LeftUpLeg  -11.7707 1.3206 -5.84585
LeftLeg  -0.6236 23.5481 -3.17954
LeftFoot  -0.906239 0.0058465 -0.292447
LeftToes  -7.53974e-010 3.3384e-011 -1.25048e-011
